Test12_result.mot
datacolumns	10
datarows	82
range	3.080000 3.161000
endheader
time	ground_force1_vx	ground_force1_vy	ground_force1_vz	ground_force1_px	ground_force1_py	ground_force1_pz	ground_torque1_x	ground_torque1_y	ground_torque1_z
3.080000	-5.814667	533.914490	6.781209	-0.297690	0.000000	-0.232473	0.000000	-1.055921	0.000000
3.081000	-5.418338	534.844055	6.861408	-0.297385	0.000000	-0.232493	0.000000	-1.078920	0.000000
3.082000	-5.013715	535.798157	6.946332	-0.297083	0.000000	-0.232514	0.000000	-1.102110	0.000000
3.083000	-4.600823	536.776306	7.036351	-0.296784	0.000000	-0.232535	0.000000	-1.125410	0.000000
3.084000	-4.179692	537.777832	7.131839	-0.296487	0.000000	-0.232556	0.000000	-1.148737	0.000000
3.085000	-3.750351	538.801880	7.233166	-0.296193	0.000000	-0.232579	0.000000	-1.172014	0.000000
3.086000	-3.312812	539.847656	7.340675	-0.295901	0.000000	-0.232601	0.000000	-1.195181	0.000000
3.087000	-2.867072	540.914551	7.454673	-0.295611	0.000000	-0.232625	0.000000	-1.218196	0.000000
3.088000	-2.413141	542.001709	7.575441	-0.295324	0.000000	-0.232650	0.000000	-1.241035	0.000000
3.089000	-1.951041	543.108459	7.703242	-0.295037	0.000000	-0.232675	0.000000	-1.263689	0.000000
3.090000	-1.480769	544.234192	7.838299	-0.294753	0.000000	-0.232702	0.000000	-1.286157	0.000000
3.091000	-1.002281	545.378235	7.980776	-0.294469	0.000000	-0.232730	0.000000	-1.308436	0.000000
3.092000	-0.515496	546.540222	8.130786	-0.294187	0.000000	-0.232759	0.000000	-1.330519	0.000000
3.093000	-0.020311	547.719849	8.288422	-0.293905	0.000000	-0.232790	0.000000	-1.352392	0.000000
3.094000	0.483393	548.917053	8.453764	-0.293623	0.000000	-0.232822	0.000000	-1.374038	0.000000
3.095000	0.995734	550.131775	8.626866	-0.293342	0.000000	-0.232855	0.000000	-1.395436	0.000000
3.096000	1.516793	551.364014	8.807733	-0.293061	0.000000	-0.232890	0.000000	-1.416571	0.000000
3.097000	2.046583	552.613953	8.996292	-0.292780	0.000000	-0.232925	0.000000	-1.437429	0.000000
3.098000	2.585052	553.881714	9.192390	-0.292498	0.000000	-0.232962	0.000000	-1.458007	0.000000
3.099000	3.132091	555.167480	9.395798	-0.292216	0.000000	-0.233000	0.000000	-1.478307	0.000000
3.100000	3.687539	556.471558	9.606228	-0.291932	0.000000	-0.233039	0.000000	-1.498340	0.000000
3.101000	4.251178	557.794189	9.823364	-0.291649	0.000000	-0.233078	0.000000	-1.518124	0.000000
3.102000	4.822732	559.135803	10.046885	-0.291364	0.000000	-0.233118	0.000000	-1.537675	0.000000
3.103000	5.401855	560.496643	10.276468	-0.291079	0.000000	-0.233159	0.000000	-1.556999	0.000000
3.104000	5.988139	561.877136	10.511790	-0.290792	0.000000	-0.233200	0.000000	-1.576094	0.000000
3.105000	6.581133	563.277649	10.752520	-0.290505	0.000000	-0.233241	0.000000	-1.594948	0.000000
3.106000	7.180378	564.698669	10.998310	-0.290217	0.000000	-0.233282	0.000000	-1.613554	0.000000
3.107000	7.785409	566.140869	11.248784	-0.289929	0.000000	-0.233323	0.000000	-1.631908	0.000000
3.108000	8.395767	567.604797	11.503529	-0.289640	0.000000	-0.233364	0.000000	-1.650013	0.000000
3.109000	9.011022	569.090820	11.762105	-0.289350	0.000000	-0.233405	0.000000	-1.667867	0.000000
3.110000	9.630776	570.599121	12.024086	-0.289061	0.000000	-0.233446	0.000000	-1.685468	0.000000
3.111000	10.254670	572.129456	12.289060	-0.288770	0.000000	-0.233486	0.000000	-1.702798	0.000000
3.112000	10.882365	573.681396	12.556628	-0.288480	0.000000	-0.233526	0.000000	-1.719826	0.000000
3.113000	11.513562	575.254272	12.826407	-0.288189	0.000000	-0.233566	0.000000	-1.736506	0.000000
3.114000	12.148004	576.847229	13.098029	-0.287899	0.000000	-0.233605	0.000000	-1.752790	0.000000
3.115000	12.785489	578.459534	13.371140	-0.287608	0.000000	-0.233644	0.000000	-1.768628	0.000000
3.116000	13.425885	580.090393	13.645409	-0.287317	0.000000	-0.233682	0.000000	-1.783979	0.000000
3.117000	14.069127	581.739075	13.920535	-0.287026	0.000000	-0.233720	0.000000	-1.798812	0.000000
3.118000	14.715201	583.405090	14.196271	-0.286735	0.000000	-0.233758	0.000000	-1.813103	0.000000
3.119000	15.364136	585.087708	14.472404	-0.286444	0.000000	-0.233795	0.000000	-1.826836	0.000000
3.120000	16.015985	586.786499	14.748737	-0.286153	0.000000	-0.233831	0.000000	-1.840007	0.000000
3.121000	16.670835	588.500732	15.025081	-0.285862	0.000000	-0.233867	0.000000	-1.852617	0.000000
3.122000	17.328827	590.230164	15.301228	-0.285571	0.000000	-0.233903	0.000000	-1.864670	0.000000
3.123000	17.990183	591.974670	15.576962	-0.285280	0.000000	-0.233939	0.000000	-1.876176	0.000000
3.124000	18.655235	593.734375	15.852069	-0.284989	0.000000	-0.233973	0.000000	-1.887142	0.000000
3.125000	19.324390	595.509766	16.126335	-0.284698	0.000000	-0.234007	0.000000	-1.897578	0.000000
3.126000	19.998108	597.301270	16.399553	-0.284407	0.000000	-0.234041	0.000000	-1.907496	0.000000
3.127000	20.676903	599.109680	16.671515	-0.284117	0.000000	-0.234074	0.000000	-1.916904	0.000000
3.128000	21.361353	600.935852	16.942007	-0.283828	0.000000	-0.234106	0.000000	-1.925817	0.000000
3.129000	22.052099	602.780701	17.210844	-0.283540	0.000000	-0.234138	0.000000	-1.934240	0.000000
3.130000	22.749826	604.645081	17.477861	-0.283252	0.000000	-0.234169	0.000000	-1.942171	0.000000
3.131000	23.455252	606.529968	17.742924	-0.282966	0.000000	-0.234200	0.000000	-1.949605	0.000000
3.132000	24.169104	608.436523	18.005911	-0.282680	0.000000	-0.234229	0.000000	-1.956536	0.000000
3.133000	24.892103	610.365906	18.266737	-0.282397	0.000000	-0.234259	0.000000	-1.962961	0.000000
3.134000	25.624949	612.319214	18.525366	-0.282115	0.000000	-0.234287	0.000000	-1.968882	0.000000
3.135000	26.368305	614.297729	18.781839	-0.281835	0.000000	-0.234316	0.000000	-1.974307	0.000000
3.136000	27.122803	616.302673	19.036287	-0.281557	0.000000	-0.234343	0.000000	-1.979243	0.000000
3.137000	27.889036	618.335449	19.288921	-0.281282	0.000000	-0.234370	0.000000	-1.983687	0.000000
3.138000	28.667532	620.397461	19.540033	-0.281010	0.000000	-0.234397	0.000000	-1.987619	0.000000
3.139000	29.458710	622.490112	19.789995	-0.280740	0.000000	-0.234423	0.000000	-1.991005	0.000000
3.140000	30.262882	624.614807	20.039267	-0.280474	0.000000	-0.234449	0.000000	-1.993806	0.000000
3.141000	31.080296	626.772705	20.288361	-0.280212	0.000000	-0.234473	0.000000	-1.995966	0.000000
3.142000	31.911163	628.965027	20.537813	-0.279953	0.000000	-0.234497	0.000000	-1.997414	0.000000
3.143000	32.755695	631.192932	20.788185	-0.279698	0.000000	-0.234520	0.000000	-1.998061	0.000000
3.144000	33.614090	633.457520	21.040073	-0.279447	0.000000	-0.234542	0.000000	-1.997807	0.000000
3.145000	34.486546	635.760071	21.294109	-0.279200	0.000000	-0.234563	0.000000	-1.996545	0.000000
3.146000	35.373234	638.101807	21.550930	-0.278958	0.000000	-0.234583	0.000000	-1.994163	0.000000
3.147000	36.274284	640.483948	21.811153	-0.278719	0.000000	-0.234602	0.000000	-1.990549	0.000000
3.148000	37.189743	642.907593	22.075329	-0.278485	0.000000	-0.234620	0.000000	-1.985590	0.000000
3.149000	38.119522	645.373962	22.343927	-0.278255	0.000000	-0.234636	0.000000	-1.979186	0.000000
3.150000	39.063412	647.884399	22.617319	-0.278028	0.000000	-0.234652	0.000000	-1.971249	0.000000
3.151000	40.021111	650.440186	22.895790	-0.277806	0.000000	-0.234665	0.000000	-1.961710	0.000000
3.152000	40.992264	653.042358	23.179522	-0.277588	0.000000	-0.234678	0.000000	-1.950514	0.000000
3.153000	41.976513	655.691711	23.468573	-0.277373	0.000000	-0.234688	0.000000	-1.937620	0.000000
3.154000	42.973503	658.388733	23.762867	-0.277162	0.000000	-0.234696	0.000000	-1.923006	0.000000
3.155000	43.982861	661.133728	24.062166	-0.276956	0.000000	-0.234703	0.000000	-1.906664	0.000000
3.156000	45.004211	663.926636	24.366060	-0.276752	0.000000	-0.234706	0.000000	-1.888612	0.000000
3.157000	46.037144	666.767334	24.673937	-0.276552	0.000000	-0.234707	0.000000	-1.868892	0.000000
3.158000	47.081203	669.655090	24.984957	-0.276356	0.000000	-0.234705	0.000000	-1.847587	0.000000
3.159000	48.135853	672.588989	25.298019	-0.276163	0.000000	-0.234700	0.000000	-1.824812	0.000000
3.160000	49.200443	675.567505	25.611742	-0.275973	0.000000	-0.234691	0.000000	-1.800733	0.000000
3.161000	50.274193	678.589111	25.924450	-0.275786	0.000000	-0.234679	0.000000	-1.775562	0.000000
